<?xml version="1.0" encoding="UTF-8"?>
<svg id="b" data-name="Layer 2" xmlns="http://www.w3.org/2000/svg" viewBox="0 0 139.74 27.94">
  <defs>
    <style>
      .d {
        fill: #66151d;
      }
    </style>
  </defs>
  <g id="c" data-name="Layer 1">
    <g>
      <path class="d" d="M27.14,19.69c-1.2,0-1.56-.9-1.56-1.53,0-.87.21-1.62.42-2.49l1.74-7.05c.09-.36.24-.81.24-1.17s-.36-1.23-1.26-1.23-2.1.42-4.29,1.05l-.12.69c.18,0,.39-.03.6-.03,1.56,0,1.98.42,1.83,1.08l-1.38,6.3c-.81,3.72-2.07,4.77-4.23,4.77-1.89,0-1.89-1.23-1.89-1.77,0-1.02.18-1.41.48-2.7l1.77-7.5c.03-.12.12-.51.12-.75,0-.36-.54-1.14-1.2-1.14-.84,0-2.46.48-4.29,1.08l-.15.66c.39-.03.78-.03,1.17-.03,1.29,0,1.35.63,1.35,1.14,0,.33-.45,1.95-.54,2.34l-1.41,6.21c-.18.54-.27.9-.27,1.38,0,1.8,1.11,2.52,2.64,2.52,2.19,0,5.22-1.41,6-1.41.6,0,1.35,1.41,2.49,1.41,1.62,0,3.36-1.26,4.26-1.98l.15-.84c-.6.3-1.8.99-2.67.99Z"/>
      <path class="d" d="M37.97,7.39c2,0,2.24,2.52,2.24,3.81h.54l1.47-2.1c.12-.21.3-.42.3-.69,0-1.41-1.14-2.19-3.18-2.19-4.77,0-8.58,3.93-8.58,10.26,0,3.45,1.5,5.04,4.23,5.04s5.13-1.47,6.33-2.28l.21-1.05c-.93.54-2.85,1.65-4.68,1.65-2.36,0-2.97-1.62-2.97-4.26,0-2.88,1.5-8.19,4.09-8.19Z"/>
      <path class="d" d="M48.04,19.69c-.36,0-1.35-.18-1.35-1.74,0-.57.34-1.71.51-2.4l1.53-5.7c.21-.78.6-2.07.6-2.52,0-.66-.86-1.11-1.02-1.11-.72,0-1.59.27-4.7,1.2l-.15.66c1.97.18,2.61.09,2.61,1.29,0,.6-.25,1.17-.46,1.95l-1.31,4.95c-.25.9-.58,1.74-.58,2.88s1.35,2.37,2.52,2.37c1.8,0,3.72-1.38,4.5-1.92l.21-.84c-.78.39-1.68.93-2.91.93Z"/>
      <path class="d" d="M59.54,6.22c-2.94,0-5.88,1.56-5.88,4.5,0,3.33,5.46,4.23,5.46,7.38,0,1.29-.99,2.25-2.25,2.25-2.43,0-3.15-2.49-3.36-3.93h-.51l-.99,1.83c-.12.24-.21.36-.21.54,0,1.62.93,2.73,3.84,2.73,3.36,0,6.03-2.01,6.03-4.65,0-1.71-.54-2.31-1.68-3.36-1.59-1.41-3.78-2.34-3.78-4.17,0-1.14.9-1.95,2.19-1.95,2.1,0,2.61,2.28,2.82,3.21h.48l.93-1.71c.12-.21.12-.63.12-.99,0-1.02-1.44-1.68-3.21-1.68Z"/>
      <path class="d" d="M70.84,7.39c2.01,0,2.25,2.52,2.25,3.81h.54l1.47-2.1c.11-.21.3-.42.3-.69,0-1.41-1.14-2.19-3.18-2.19-4.77,0-8.58,3.93-8.58,10.26,0,3.45,1.5,5.04,4.23,5.04s5.13-1.47,6.33-2.28l.21-1.05c-.93.54-2.85,1.65-4.68,1.65-2.37,0-2.97-1.62-2.97-4.26,0-2.88,1.5-8.19,4.08-8.19Z"/>
      <path class="d" d="M88.72,19.57c-.81,0-1.5-.66-1.5-1.47s.06-1.32.3-2.34l2.25-9.51-.3-.3-1.05.33c-.33.12-.6.24-.93.24-.18,0-.42-.09-.87-.15-.45-.09-1.11-.15-2.16-.15-6.36,0-8.85,7.32-8.85,11.82,0,2.37,1.56,3.48,3.36,3.48,2.28,0,4.8-1.35,5.37-1.35.72,0,1.41,1.35,2.7,1.35,1.56,0,3.66-1.56,4.2-1.95l.18-.87c-.6.27-1.65.87-2.7.87ZM86.14,9.61l-1.11,5.04c-.51,2.31-.63,5.43-4.32,5.43-.93,0-1.98-1.14-1.98-2.07,0-3.42,1.26-10.62,5.64-10.62.93,0,2.19.39,1.77,2.22Z"/>
      <path class="d" d="M102.4,6.22c-1.11,0-1.95.36-2.61.72-.66.36-1.17.72-1.65.72-.27,0-.51-.36-.78-.72-.27-.36-.6-.72-1.08-.72-1.05,0-3.06.87-3.72,1.17l-.15.66c.45-.06.99-.09,1.44-.09.78,0,1.23.3,1.23,1.14,0,.78-.24,1.59-.42,2.31l-1.65,6.96c-.12.51-.33,1.14-.33,1.53,0,.87.6,1.47,1.02,1.47.84,0,2.37-.36,2.64-.48l.06-.39c-.36-.24-.75-.39-.75-1.05,0-.39.06-.78.21-1.32l1.29-5.79c.57-2.55,1.32-4.2,2.85-4.2,1.29,0,1.77,1.38,1.92,2.07h.48l1.05-1.8c.12-.24.33-.48.33-.75,0-.78-.42-1.44-1.38-1.44Z"/>
      <path class="d" d="M109.92,7.39c2.01,0,2.25,2.52,2.25,3.81h.54l1.47-2.1c.12-.21.3-.42.3-.69,0-1.41-1.14-2.19-3.18-2.19-4.77,0-8.58,3.93-8.58,10.26,0,3.45,1.5,5.04,4.23,5.04s5.13-1.47,6.33-2.28l.21-1.05c-.93.54-2.85,1.65-4.68,1.65-2.37,0-2.97-1.62-2.97-4.26,0-2.88,1.5-8.19,4.08-8.19Z"/>
      <path class="d" d="M119.97,14.08l2.34-.45c2.28-.42,5.01-1.05,5.01-4.38,0-2.13-1.59-3.03-3.99-3.03-5.34,0-8.64,5.19-8.64,10.47,0,3.21,1.44,4.83,4.35,4.83s5.55-1.62,6.75-2.31l.24-1.08c-.96.51-3.18,1.71-5.16,1.71-2.19,0-3.06-1.56-3.06-3.81,0-1.74.15-1.53,2.16-1.95ZM122.28,7.39c1.41,0,1.92.9,1.92,2.28,0,1.92-1.23,2.73-2.85,3.03l-1.77.36c-.33.06-.69.12-1.02.12-.24,0-.3-.27-.3-.51,0-.42,1.26-5.28,4.02-5.28Z"/>
      <path class="d" d="M138.36,6.22c-1.11,0-1.95.36-2.61.72-.64.35-1.14.7-1.61.72l.83-3.67c.12-.54.18-.81.18-1.23,0-2.01-1.59-2.76-2.67-2.76-1.68,0-3.6,1.53-4.38,2.13l-.21.93c.66-.42,1.77-1.23,2.94-1.23.72,0,1.35.42,1.35,1.8,0,.67-.21,1.68-.43,2.64-.06.25-.12.49-.17.72l-.54,2.25-2.64,10.86c-.09.36-.24.99-.24,1.29,0,.24.45.6.63.6.72,0,3.45-.84,4.95-1.11l.09-.48-1.23-.33c-.75-.21-.93-.36-.93-.99,0-.13.02-.33.05-.57.01-.02.01-.03.01-.05.03-.1.06-.21.09-.33l1.29-5.79c.57-2.55,1.32-4.2,2.85-4.2,1.29,0,1.77,1.38,1.92,2.07h.48l1.05-1.8c.12-.24.33-.48.33-.75,0-.78-.42-1.44-1.38-1.44Z"/>
      <path class="d" d="M1.38,21.72c1.11,0,1.95-.36,2.61-.72.64-.35,1.14-.7,1.61-.72l-.83,3.67c-.12.54-.18.81-.18,1.23,0,2.01,1.59,2.76,2.67,2.76,1.68,0,3.6-1.53,4.38-2.13l.21-.93c-.66.42-1.77,1.23-2.94,1.23-.72,0-1.35-.42-1.35-1.8,0-.67.21-1.68.43-2.64.06-.25.12-.49.17-.72l.54-2.25,2.64-10.86c.09-.36.24-.99.24-1.29,0-.24-.45-.6-.63-.6-.72,0-3.45.84-4.95,1.11l-.09.48,1.23.33c.75.21.93.36.93.99,0,.13-.02.33-.05.57-.01.02-.01.03-.01.05-.03.1-.06.21-.09.33l-1.29,5.79c-.57,2.55-1.32,4.2-2.85,4.2-1.29,0-1.77-1.38-1.92-2.07h-.48l-1.05,1.8c-.12.24-.33.48-.33.75,0,.78.42,1.44,1.38,1.44Z"/>
    </g>
  </g>
</svg>