<?xml version="1.0" encoding="UTF-8"?>
<svg id="Livello_2" data-name="Livello 2" xmlns="http://www.w3.org/2000/svg" viewBox="0 0 21.65 27.94">
  <defs>
    <style>
      .cls-1 {
        fill: #66151d;
        stroke-width: 0px;
      }
    </style>
  </defs>
  <g id="Layer_1" data-name="Layer 1">
    <g>
      <path class="cls-1" d="M20.27,6.22c-1.11,0-1.95.36-2.61.72-.64.35-1.14.7-1.61.72l.83-3.67c.12-.54.18-.81.18-1.23,0-2.01-1.59-2.76-2.67-2.76-1.68,0-3.6,1.53-4.38,2.13l-.21.93c.66-.42,1.77-1.23,2.94-1.23.72,0,1.35.42,1.35,1.8,0,.67-.21,1.68-.43,2.64-.06.25-.12.49-.17.72l-.54,2.25-2.64,10.86c-.09.36-.24.99-.24,1.29,0,.24.45.6.63.6.72,0,3.45-.84,4.95-1.11l.09-.48-1.23-.33c-.75-.21-.93-.36-.93-.99,0-.13.02-.33.05-.57.01-.02.01-.03.01-.05.03-.1.06-.21.09-.33l1.29-5.79c.57-2.55,1.32-4.2,2.85-4.2,1.29,0,1.77,1.38,1.92,2.07h.48l1.05-1.8c.12-.24.33-.48.33-.75,0-.78-.42-1.44-1.38-1.44Z"/>
      <path class="cls-1" d="M1.38,21.72c1.11,0,1.95-.36,2.61-.72.64-.35,1.14-.7,1.61-.72l-.83,3.67c-.12.54-.18.81-.18,1.23,0,2.01,1.59,2.76,2.67,2.76,1.68,0,3.6-1.53,4.38-2.13l.21-.93c-.66.42-1.77,1.23-2.94,1.23-.72,0-1.35-.42-1.35-1.8,0-.67.21-1.68.43-2.64.06-.25.12-.49.17-.72l.54-2.25,2.64-10.86c.09-.36.24-.99.24-1.29,0-.24-.45-.6-.63-.6-.72,0-3.45.84-4.95,1.11l-.09.48,1.23.33c.75.21.93.36.93.99,0,.13-.02.33-.05.57-.01.02-.01.03-.01.05-.03.1-.06.21-.09.33l-1.29,5.79c-.57,2.55-1.32,4.2-2.85,4.2-1.29,0-1.77-1.38-1.92-2.07h-.48l-1.05,1.8c-.12.24-.33.48-.33.75,0,.78.42,1.44,1.38,1.44Z"/>
    </g>
  </g>
</svg>